<svg xmlns="http://www.w3.org/2000/svg" viewBox="0 0 400 300">
  <rect width="400" height="300" fill="#1F2937"/>
  
  <circle cx="200" cy="120" r="60" fill="#0EA5E9"/>
  <path d="M200 60 A60 60 0 0 1 200 180 L200 60" fill="#F97316"/>
  
  <path d="M165 105 C165 105, 175 105, 180 105 L185 135" 
        stroke="#000000" 
        stroke-width="4" 
        fill="none" 
        stroke-linecap="round"/>
  
  <path d="M160 115 L175 115 L180 135 L220 135 L225 115 L165 115" 
        stroke="#000000" 
        fill="#000000" 
        stroke-width="2"/>
  
  <circle cx="190" cy="142" r="4" fill="#000000" stroke="#222222" stroke-width="1"/>
  <circle cx="215" cy="142" r="4" fill="#000000" stroke="#222222" stroke-width="1"/>
  
  <path d="M180 120 L220 120" 
        stroke="#333333" 
        stroke-width="1" 
        opacity="0.5"/>
  
  <ellipse cx="200" cy="120" rx="70" ry="20" 
           stroke="white" 
           fill="none" 
           stroke-width="2" 
           transform="rotate(-15, 200, 120)"/>
  <ellipse cx="200" cy="120" rx="75" ry="25" 
           stroke="white" 
           fill="none" 
           stroke-width="1" 
           transform="rotate(15, 200, 120)"
           stroke-dasharray="2,2"/>
           
  <circle cx="145" cy="100" r="3" fill="#0EA5E9"/>
  <circle cx="255" cy="140" r="4" fill="#0EA5E9"/>
  <circle cx="160" cy="80" r="2" fill="white"/>
  <circle cx="240" cy="90" r="2" fill="white"/>
  
  <text x="200" y="240" 
        font-family="Arial, sans-serif" 
        font-size="36" 
        font-weight="900" 
        text-anchor="middle" 
        fill="white"
        letter-spacing="2">
    CARTVERSE
  </text>
</svg>
